<svg width="13" height="14" viewBox="0 0 13 14" fill="none" xmlns="http://www.w3.org/2000/svg">
<g clip-path="url(#clip0)">
<path d="M11.9429 3.32426L11.5498 2.89843C11.4263 2.76452 11.2616 2.69086 11.0858 2.69086C10.91 2.69086 10.7452 2.76452 10.6217 2.89843L5.0985 8.88182L1.64767 5.14331C1.52416 5.00961 1.35938 4.93584 1.18357 4.93584C1.00786 4.93584 0.84318 5.00961 0.719571 5.14331L0.3264 5.56904C0.20279 5.70316 0.134888 5.88178 0.134888 6.07202C0.134888 6.26237 0.20279 6.44088 0.3264 6.57479L4.22259 10.7955C4.22777 10.8034 4.23323 10.8108 4.23957 10.8175L4.63274 11.2364C4.75625 11.3698 4.92103 11.4365 5.0982 11.4365H5.10025C5.27616 11.4365 5.44094 11.3698 5.56425 11.2364L5.95752 10.8138C5.96386 10.8071 5.96923 10.8015 5.97245 10.7958L11.9428 4.32854C12.1989 4.05173 12.1989 3.60139 11.9429 3.32426Z" fill="white"/>
</g>
<defs>
<clipPath id="clip0">
<rect width="12" height="13" fill="white" transform="translate(0.134888 0.56366)"/>
</clipPath>
</defs>
</svg>
